<svg width="380" height="93" viewBox="0 0 380 93" fill="none" xmlns="http://www.w3.org/2000/svg">
<rect width="158" height="85" fill="#00864C"/>
<path d="M76.1734 52.8546C67.1236 61.8823 64.1455 64.837 63.7163 65.2451C60.7743 68.043 56.9536 70.4278 52.9911 71.9394C46.9205 74.255 39.7862 74.6444 33.428 73.0068C29.6657 72.0375 25.8758 70.2828 22.6625 68.0223C20.719 66.6549 18.094 64.2689 16.6174 62.5276C12.4844 57.6538 9.91584 51.6673 9.16215 45.1514C9.007 43.8098 8.94913 40.8563 9.05089 39.4663C9.37853 34.9867 10.5689 30.5775 12.4674 26.8136C15.2526 21.2912 19.3797 16.8415 24.6737 13.6531C29.4032 10.805 34.5197 9.29485 40.3359 9.03039C47.6804 8.69632 55.2533 11.1279 61.3309 15.7719C63.0935 17.1188 65.5835 19.4699 68.0696 22.1349C68.3721 22.4592 68.6746 22.7835 68.977 23.1075C68.4873 23.5922 67.9975 24.0773 67.5077 24.562C63.4494 28.5795 59.71 32.2068 59.0891 32.7282C56.9642 34.5126 54.5016 35.6124 51.5221 36.1072C48.3941 36.6266 45.7268 36.4069 42.6151 35.3728C41.3554 34.954 40.4644 34.5841 38.8693 33.817C38.5056 33.642 38.1416 33.467 37.7779 33.292C38.0435 33.0891 38.3093 32.8864 38.5749 32.6837C40.5022 31.2132 41.2352 30.1554 41.1653 28.9449C41.1345 28.4099 40.8477 27.7179 40.4846 27.3031C39.9506 26.6931 39.0309 26.3135 38.0916 26.3157C37.5104 26.3168 34.4081 26.6509 30.3772 27.1457C29.278 27.2807 26.9266 27.5628 25.1523 27.7725C23.3779 27.9824 20.92 28.2757 19.6906 28.4244C18.9453 28.5147 18.2 28.6047 17.4547 28.695C17.9467 29.6908 18.4384 30.6866 18.9302 31.6821C20.281 34.4164 22.0598 38.0769 25.1978 44.5786C25.8486 45.9272 26.5126 47.2187 26.6733 47.4483C27.2886 48.3286 28.4024 48.8623 29.3705 48.7409C29.8597 48.6797 30.6386 48.2861 31.035 47.8997C31.3992 47.5444 31.6019 47.1762 31.7445 46.611C31.8572 46.1628 32.1292 43.9826 32.13 43.5199C32.1303 43.3578 32.1594 43.2071 32.1949 43.185C32.2304 43.1632 32.6013 43.3374 33.019 43.5722C40.0328 47.5165 47.1615 48.8167 53.9766 47.3949C56.7053 46.8254 58.6664 46.1329 61.2353 44.8316C63.2056 43.8333 64.1362 43.2353 65.7317 41.9427C66.6003 41.239 67.8147 40.0909 72.2635 35.7686C73.4732 34.5931 74.6831 33.4178 75.8927 32.2423C75.9688 32.19 76.0448 32.138 76.1209 32.0857C76.3244 31.946 77.0364 31.2949 78.2248 30.1624C78.4465 29.951 78.6279 29.747 78.6279 29.7087C78.6279 29.6707 78.6673 29.6365 78.7157 29.6332C78.7638 29.6296 79.466 28.9371 80.2759 28.094C81.0861 27.2508 81.7847 26.5572 81.8283 26.5525C81.9454 26.5399 90.5793 17.7582 90.6206 17.6097C90.6905 17.5393 90.7607 17.4691 90.8309 17.3987C90.8485 17.4001 90.8661 17.4012 90.8834 17.4026C90.9125 17.4048 91.4098 17.0171 91.9891 16.541C93.201 15.5443 93.4145 15.38 94.1095 14.9072C94.3894 14.7171 94.618 14.5351 94.618 14.444C96.5243 13.2179 97.3513 12.7482 98.763 12.0899C101.697 10.7217 105.214 9.70664 108.504 9.27891C111.493 8.89033 115.612 8.97783 118.379 9.4883C121.583 10.0796 124.28 10.9929 127.298 12.5086C133.362 15.5541 138.289 20.4866 141.528 26.7563C143.35 30.2834 144.501 34.1592 144.912 38.1516C145.029 39.2916 145.029 43.2501 144.912 44.3776C144.717 46.2476 144.431 47.81 143.921 49.7946C142.674 54.6457 140.646 58.5243 137.192 62.6685C135.947 64.1621 133.567 66.3796 131.858 67.639C126.904 71.2897 121.613 73.2729 115.167 73.8949C113.864 74.0204 110.449 74.0023 109.177 73.8628C107.439 73.6718 105.743 73.3545 104.212 72.9341C99.4172 71.616 94.8884 69.1992 91.1356 65.9555C90.1384 65.0933 85.2045 60.1139 85.2403 60.0057C85.2512 59.9727 85.9456 59.2682 86.7832 58.4402C87.2908 57.9384 87.7985 57.4366 88.3062 56.935C88.34 56.9292 88.3741 56.923 88.408 56.9174C88.4639 56.9076 89.215 56.2031 90.0772 55.3519C93.9309 51.5468 95.923 49.6355 96.9325 48.7745C99.8522 46.8939 103.905 45.9672 107.698 46.3121C109.659 46.4905 111.231 46.8794 113.068 47.6403C114.332 48.1639 116.545 49.3931 116.487 49.5388C116.474 49.5695 116.133 49.8798 115.728 50.2279C114.206 51.5362 113.55 52.3847 113.418 53.2122C113.287 54.0366 113.559 54.8342 114.185 55.4671C114.902 56.1906 115.746 56.4905 116.85 56.4139C117.462 56.3714 120.223 56.0499 124.459 55.5286C125.385 55.4145 127.215 55.1939 128.527 55.038C129.838 54.8822 131.432 54.6913 132.069 54.6136C133.596 54.4271 134.173 54.3592 135.676 54.1892C136.369 54.1109 136.946 54.0355 136.96 54.0215C136.995 53.986 135.829 51.4772 134.732 49.2316C131.904 43.4383 129.822 39.1429 129.006 37.418C128.105 35.5126 127.902 35.1751 127.352 34.6647C126.72 34.0773 126.292 33.8956 125.542 33.8956C124.99 33.8959 124.9 33.9168 124.409 34.1601C124.038 34.3443 123.769 34.5417 123.524 34.8106C122.876 35.5223 122.624 36.2791 122.367 38.2953C122.316 38.6934 122.265 39.0912 122.214 39.489C121.887 39.3092 121.56 39.1292 121.233 38.9494C117.035 36.642 113.587 35.4642 109.381 34.9009C108.353 34.7633 107.889 34.7418 106.014 34.7443C104.389 34.7469 103.584 34.7787 102.824 34.8713C98.7711 35.3638 94.7709 36.7711 91.1641 38.9729C90.9595 39.0979 90.7548 39.2228 90.5505 39.3475C90.525 39.3182 90.4996 39.2891 90.4744 39.2597C90.4155 39.1918 90.3461 39.2318 90.1689 39.4356C90.0428 39.5807 89.8846 39.6995 89.8175 39.6995C89.7003 39.6995 88.647 40.4582 88.1905 40.8711C87.1706 41.7948 86.5531 42.4126 86.5802 42.4833C86.6193 42.5859 86.2696 42.9354 86.1276 42.9354C86.0314 42.9354 83.6669 45.3122 81.8093 47.2763C81.341 47.7714 80.9147 48.1678 80.8621 48.1569C80.7721 48.1388 80.4093 48.5016 79.6858 49.333C79.5155 49.5287 79.3246 49.6889 79.2614 49.6889C79.1982 49.6889 79.045 49.8077 78.9209 49.9528C78.3774 50.5888 76.9168 52.0808 76.8376 52.0808C76.7898 52.0808 76.7001 52.158 76.6386 52.2522C76.5771 52.3464 76.4393 52.4657 76.3325 52.5169C76.2142 52.5739 76.1452 52.6581 76.1734 52.8546Z" fill="white"/>
<path d="M196.168 5.48633V29.7852C196.168 32.8815 195.073 35.5247 192.883 37.7148C190.693 39.9049 188.049 41 184.953 41C181.857 41 179.214 39.9049 177.023 37.7148C174.833 35.5247 173.738 32.8815 173.738 29.7852V5.48633C173.738 4.24023 174.361 3.61719 175.607 3.61719C176.854 3.61719 177.477 4.24023 177.477 5.48633V29.7852C177.477 31.8809 178.194 33.6556 179.629 35.1094C181.083 36.5443 182.857 37.2617 184.953 37.2617C187.049 37.2617 188.814 36.5443 190.249 35.1094C191.703 33.6556 192.43 31.8809 192.43 29.7852V5.48633C192.43 4.24023 193.053 3.61719 194.299 3.61719C195.545 3.61719 196.168 4.24023 196.168 5.48633ZM203.645 39.1309V16.7012C203.645 15.4551 204.268 14.832 205.514 14.832H214.859C216.955 14.832 218.72 15.5589 220.155 17.0127C221.609 18.4476 222.336 20.2129 222.336 22.3086V39.1309C222.336 40.377 221.713 41 220.467 41C219.221 41 218.598 40.377 218.598 39.1309V22.3086C218.598 21.2513 218.239 20.3639 217.521 19.6465C216.804 18.929 215.917 18.5703 214.859 18.5703H207.383V39.1309C207.383 40.377 206.76 41 205.514 41C204.268 41 203.645 40.377 203.645 39.1309ZM229.812 16.7012C229.812 15.4551 230.436 14.832 231.682 14.832C232.928 14.832 233.551 15.4551 233.551 16.7012V39.1309C233.551 40.377 232.928 41 231.682 41C230.436 41 229.812 40.377 229.812 39.1309V16.7012ZM229.812 7.35547V5.48633C229.812 4.24023 230.436 3.61719 231.682 3.61719C232.928 3.61719 233.551 4.24023 233.551 5.48633V7.35547C233.551 8.60156 232.928 9.22461 231.682 9.22461C230.436 9.22461 229.812 8.60156 229.812 7.35547ZM250.373 33.1836L256.037 16.1064C256.32 15.2568 256.915 14.832 257.821 14.832C259.086 14.832 259.719 15.4456 259.719 16.6729C259.719 16.8617 259.681 17.0693 259.605 17.2959L252.242 39.4424C251.902 40.4808 251.279 41 250.373 41C249.467 41 248.844 40.4902 248.504 39.4707L241.141 17.2959C241.065 17.0693 241.027 16.8617 241.027 16.6729C241.027 16.1631 241.207 15.7288 241.565 15.3701C241.943 15.0114 242.387 14.832 242.896 14.832C243.803 14.832 244.397 15.2568 244.681 16.1064L250.373 33.1836ZM276.541 18.5703C274.993 18.5703 273.671 19.1178 272.576 20.2129C271.481 21.3079 270.934 22.6296 270.934 24.1777V26.0469H282.148V24.1777C282.148 22.6296 281.601 21.3079 280.506 20.2129C279.411 19.1178 278.089 18.5703 276.541 18.5703ZM270.934 29.7852V33.5234C270.934 34.543 271.302 35.4209 272.038 36.1572C272.774 36.8936 273.652 37.2617 274.672 37.2617H284.018C285.264 37.2617 285.887 37.8848 285.887 39.1309C285.887 40.377 285.264 41 284.018 41H274.672C272.576 41 270.801 40.2826 269.348 38.8477C267.913 37.3939 267.195 35.6191 267.195 33.5234V24.1777C267.195 21.5911 268.102 19.3916 269.914 17.5791C271.745 15.7477 273.954 14.832 276.541 14.832C279.165 14.832 281.374 15.7383 283.168 17.5508C284.98 19.3444 285.887 21.5534 285.887 24.1777V29.7852H270.934ZM293.363 16.7012C293.363 15.4551 293.986 14.832 295.232 14.832H306.447C307.693 14.832 308.316 15.4551 308.316 16.7012V20.4395C308.316 21.6855 307.693 22.3086 306.447 22.3086C305.201 22.3086 304.578 21.6855 304.578 20.4395V18.5703H297.102V39.1309C297.102 40.377 296.479 41 295.232 41C293.986 41 293.363 40.377 293.363 39.1309V16.7012ZM330.746 34.458C330.746 33.2686 330.217 32.4189 329.16 31.9092L319.56 27.293C317.049 26.0846 315.793 24.1117 315.793 21.374C315.793 19.2217 316.68 17.5602 318.455 16.3896C319.984 15.3701 321.891 14.8604 324.176 14.8604C326.951 14.8604 329.434 15.5495 331.624 16.9277C332.285 17.3431 332.615 17.8906 332.615 18.5703C332.615 19.0801 332.426 19.5238 332.049 19.9014C331.69 20.2601 331.256 20.4395 330.746 20.4395C330.406 20.4395 330.114 20.3639 329.868 20.2129C328.075 19.1367 326.177 18.5986 324.176 18.5986C321.079 18.5986 319.531 19.5238 319.531 21.374C319.531 22.5446 320.041 23.3753 321.061 23.8662L330.746 28.5391C333.238 29.7474 334.484 31.7204 334.484 34.458C334.484 36.7236 333.588 38.4229 331.794 39.5557C330.265 40.5186 328.292 41 325.875 41C322.288 41 319.276 40.3109 316.841 38.9326C316.142 38.5361 315.793 37.9792 315.793 37.2617C315.793 36.752 315.972 36.3177 316.331 35.959C316.709 35.5814 317.152 35.3926 317.662 35.3926C317.908 35.3926 318.144 35.4398 318.37 35.5342C318.974 35.7985 319.862 36.1478 321.032 36.582C322.731 37.0352 324.383 37.2617 325.988 37.2617C329.16 37.2617 330.746 36.3271 330.746 34.458ZM349.438 41C347.342 41 345.567 40.2826 344.113 38.8477C342.678 37.3939 341.961 35.6191 341.961 33.5234C341.961 32.1641 342.291 30.9085 342.952 29.7568C344.368 27.2835 346.53 26.0469 349.438 26.0469H356.914V22.3086C356.914 21.2513 356.555 20.3639 355.838 19.6465C355.12 18.929 354.233 18.5703 353.176 18.5703H345.699C344.453 18.5703 343.83 17.9473 343.83 16.7012C343.83 15.4551 344.453 14.832 345.699 14.832H353.176C355.271 14.832 357.037 15.5589 358.472 17.0127C359.925 18.4476 360.652 20.2129 360.652 22.3086V39.1309C360.652 40.377 360.029 41 358.783 41H349.438ZM356.914 29.7852H349.438C348.399 29.7852 347.512 30.1533 346.775 30.8896C346.058 31.6071 345.699 32.485 345.699 33.5234C345.699 34.543 346.067 35.4209 346.804 36.1572C347.54 36.8936 348.418 37.2617 349.438 37.2617H356.914V29.7852ZM368.129 5.48633C368.129 4.24023 368.752 3.61719 369.998 3.61719C371.244 3.61719 371.867 4.24023 371.867 5.48633V35.3926C371.867 36.3555 372.49 36.9785 373.736 37.2617C374.982 37.5449 375.605 38.168 375.605 39.1309C375.605 40.377 374.982 41 373.736 41C372.056 41 370.697 40.5091 369.658 39.5273C368.639 38.5267 368.129 37.1484 368.129 35.3926V5.48633ZM173.738 79.1309V45.4863C173.738 44.2402 174.361 43.6172 175.607 43.6172H190.561C191.807 43.6172 192.43 44.2402 192.43 45.4863C192.43 46.7324 191.807 47.3555 190.561 47.3555H177.477V58.5703H186.822C188.068 58.5703 188.691 59.1934 188.691 60.4395C188.691 61.6855 188.068 62.3086 186.822 62.3086H177.477V77.2617H190.561C191.807 77.2617 192.43 77.8848 192.43 79.1309C192.43 80.377 191.807 81 190.561 81H175.607C174.361 81 173.738 80.377 173.738 79.1309ZM211.518 67.916L218.286 78.083C218.494 78.404 218.598 78.7533 218.598 79.1309C218.598 80.377 217.975 81 216.729 81C216.049 81 215.53 80.7262 215.171 80.1787L209.252 71.2861L203.333 80.1787C202.974 80.7262 202.455 81 201.775 81C201.266 81 200.822 80.8206 200.444 80.4619C200.086 80.0843 199.906 79.6406 199.906 79.1309C199.906 78.7533 200.01 78.404 200.218 78.083L206.986 67.916L200.218 57.749C200.01 57.4281 199.906 57.0788 199.906 56.7012C199.906 55.4551 200.529 54.832 201.775 54.832C202.455 54.832 202.974 55.1058 203.333 55.6533L209.252 64.5176L215.171 55.6533C215.53 55.1058 216.049 54.832 216.729 54.832C217.975 54.832 218.598 55.4456 218.598 56.6729C218.598 57.0693 218.494 57.4281 218.286 57.749L211.518 67.916ZM229.812 62.3086V73.5234C229.812 74.543 230.181 75.4209 230.917 76.1572C231.653 76.8936 232.531 77.2617 233.551 77.2617H239.158C240.404 77.2617 241.027 77.8848 241.027 79.1309C241.027 80.377 240.404 81 239.158 81H233.551C231.455 81 229.68 80.2826 228.227 78.8477C226.792 77.3939 226.074 75.6191 226.074 73.5234V62.3086C226.074 60.2129 226.792 58.4476 228.227 57.0127C229.68 55.5589 231.455 54.832 233.551 54.832H239.158C240.404 54.832 241.027 55.4551 241.027 56.7012C241.027 57.9473 240.404 58.5703 239.158 58.5703H233.551C232.512 58.5703 231.625 58.9385 230.889 59.6748C230.171 60.3923 229.812 61.2702 229.812 62.3086ZM248.504 45.4863C248.504 44.2402 249.127 43.6172 250.373 43.6172C251.619 43.6172 252.242 44.2402 252.242 45.4863V54.832H259.719C261.777 54.832 263.533 55.5495 264.986 56.9844C266.459 58.4193 267.195 60.1468 267.195 62.167V79.1309C267.195 80.377 266.572 81 265.326 81C264.08 81 263.457 80.377 263.457 79.1309V62.3086C263.457 61.2513 263.098 60.3639 262.381 59.6465C261.663 58.929 260.776 58.5703 259.719 58.5703H252.242V79.1309C252.242 80.377 251.619 81 250.373 81C249.127 81 248.504 80.377 248.504 79.1309V45.4863ZM282.148 81C280.053 81 278.278 80.2826 276.824 78.8477C275.389 77.3939 274.672 75.6191 274.672 73.5234C274.672 72.1641 275.002 70.9085 275.663 69.7568C277.079 67.2835 279.241 66.0469 282.148 66.0469H289.625V62.3086C289.625 61.2513 289.266 60.3639 288.549 59.6465C287.831 58.929 286.944 58.5703 285.887 58.5703H278.41C277.164 58.5703 276.541 57.9473 276.541 56.7012C276.541 55.4551 277.164 54.832 278.41 54.832H285.887C287.982 54.832 289.748 55.5589 291.183 57.0127C292.636 58.4476 293.363 60.2129 293.363 62.3086V79.1309C293.363 80.377 292.74 81 291.494 81H282.148ZM289.625 69.7852H282.148C281.11 69.7852 280.223 70.1533 279.486 70.8896C278.769 71.6071 278.41 72.485 278.41 73.5234C278.41 74.543 278.778 75.4209 279.515 76.1572C280.251 76.8936 281.129 77.2617 282.148 77.2617H289.625V69.7852ZM300.84 79.1309V56.7012C300.84 55.4551 301.463 54.832 302.709 54.832H312.055C314.15 54.832 315.916 55.5589 317.351 57.0127C318.804 58.4476 319.531 60.2129 319.531 62.3086V79.1309C319.531 80.377 318.908 81 317.662 81C316.416 81 315.793 80.377 315.793 79.1309V62.3086C315.793 61.2513 315.434 60.3639 314.717 59.6465C313.999 58.929 313.112 58.5703 312.055 58.5703H304.578V79.1309C304.578 80.377 303.955 81 302.709 81C301.463 81 300.84 80.377 300.84 79.1309ZM343.83 54.832C345.076 54.832 345.699 55.4551 345.699 56.7012V84.7383C345.699 86.834 344.972 88.5993 343.519 90.0342C342.084 91.488 340.318 92.2148 338.223 92.2148H330.746C329.5 92.2148 328.877 91.5918 328.877 90.3457C328.877 89.0996 329.5 88.4766 330.746 88.4766H338.223C339.261 88.4766 340.139 88.1084 340.856 87.3721C341.593 86.6546 341.961 85.7767 341.961 84.7383V81H334.484C331.577 81 329.415 79.7633 327.999 77.29C327.338 76.1383 327.008 74.8828 327.008 73.5234V62.3086C327.008 60.2129 327.725 58.4476 329.16 57.0127C330.614 55.5589 332.389 54.832 334.484 54.832H343.83ZM341.961 58.5703H334.484C333.446 58.5703 332.559 58.9385 331.822 59.6748C331.105 60.3923 330.746 61.2702 330.746 62.3086V73.5234C330.746 74.543 331.114 75.4209 331.851 76.1572C332.587 76.8936 333.465 77.2617 334.484 77.2617H341.961V58.5703ZM362.521 58.5703C360.973 58.5703 359.652 59.1178 358.557 60.2129C357.462 61.3079 356.914 62.6296 356.914 64.1777V66.0469H368.129V64.1777C368.129 62.6296 367.581 61.3079 366.486 60.2129C365.391 59.1178 364.07 58.5703 362.521 58.5703ZM356.914 69.7852V73.5234C356.914 74.543 357.282 75.4209 358.019 76.1572C358.755 76.8936 359.633 77.2617 360.652 77.2617H369.998C371.244 77.2617 371.867 77.8848 371.867 79.1309C371.867 80.377 371.244 81 369.998 81H360.652C358.557 81 356.782 80.2826 355.328 78.8477C353.893 77.3939 353.176 75.6191 353.176 73.5234V64.1777C353.176 61.5911 354.082 59.3916 355.895 57.5791C357.726 55.7477 359.935 54.832 362.521 54.832C365.146 54.832 367.355 55.7383 369.148 57.5508C370.961 59.3444 371.867 61.5534 371.867 64.1777V69.7852H356.914Z" fill="white"/>
</svg>
